<?xml version="1.0" encoding="utf-8" standalone="no"?>
<!DOCTYPE svg PUBLIC "-//W3C//DTD SVG 1.1//EN"
  "http://www.w3.org/Graphics/SVG/1.1/DTD/svg11.dtd">
<!-- Created with matplotlib (http://matplotlib.org/) -->
<svg height="180pt" version="1.1" viewBox="0 0 540 180" width="540pt" xmlns="http://www.w3.org/2000/svg" xmlns:xlink="http://www.w3.org/1999/xlink">
 <defs>
  <style type="text/css">
*{stroke-linecap:butt;stroke-linejoin:round;stroke-miterlimit:100000;}
  </style>
 </defs>
 <g id="figure_1">
  <g id="patch_1">
   <path d="M 0 180 
L 540 180 
L 540 0 
L 0 0 
L 0 180 
z
" style="fill:none;"/>
  </g>
  <g id="axes_1">
   <g id="patch_2">
    <path d="M 67.5 162 
L 486 162 
L 486 18 
L 67.5 18 
L 67.5 162 
z
" style="fill:none;"/>
   </g>
   <g id="LineCollection_1">
    <path clip-path="url(#p8f5048e837)" d="M 86.522727 90 
L 86.522727 155.454545 
" style="fill:none;stroke:#ffa500;"/>
    <path clip-path="url(#p8f5048e837)" d="M 124.568182 90 
L 124.568182 24.545455 
" style="fill:none;stroke:#ffa500;"/>
    <path clip-path="url(#p8f5048e837)" d="M 162.613636 90 
L 162.613636 155.454545 
" style="fill:none;stroke:#ffa500;"/>
    <path clip-path="url(#p8f5048e837)" d="M 200.659091 90 
L 200.659091 24.545455 
" style="fill:none;stroke:#ffa500;"/>
    <path clip-path="url(#p8f5048e837)" d="M 238.704545 90 
L 238.704545 155.454545 
" style="fill:none;stroke:#ffa500;"/>
    <path clip-path="url(#p8f5048e837)" d="M 276.75 90 
L 276.75 24.545455 
" style="fill:none;stroke:#ffa500;"/>
    <path clip-path="url(#p8f5048e837)" d="M 314.795455 90 
L 314.795455 155.454545 
" style="fill:none;stroke:#ffa500;"/>
    <path clip-path="url(#p8f5048e837)" d="M 352.840909 90 
L 352.840909 24.545455 
" style="fill:none;stroke:#ffa500;"/>
    <path clip-path="url(#p8f5048e837)" d="M 390.886364 90 
L 390.886364 155.454545 
" style="fill:none;stroke:#ffa500;"/>
    <path clip-path="url(#p8f5048e837)" d="M 428.931818 90 
L 428.931818 24.545455 
" style="fill:none;stroke:#ffa500;"/>
    <path clip-path="url(#p8f5048e837)" d="M 466.977273 90 
L 466.977273 155.454545 
" style="fill:none;stroke:#ffa500;"/>
   </g>
   <g id="line2d_1">
    <path clip-path="url(#p8f5048e837)" d="M 71.304545 29.141903 
L 71.715848 27.783466 
L 72.12715 26.65748 
L 72.949754 25.118805 
L 73.361057 24.711865 
L 73.772359 24.548852 
L 74.183661 24.630375 
L 74.594963 24.956131 
L 75.006265 25.5249 
L 75.82887 27.382083 
L 76.651474 30.174196 
L 77.474079 33.85955 
L 78.296683 38.383119 
L 79.53059 46.589208 
L 80.764496 56.251372 
L 82.409705 70.833419 
L 88.579238 128.022215 
L 89.813145 137.101215 
L 91.047052 144.600356 
L 91.869656 148.59542 
L 92.69226 151.715615 
L 93.514865 153.914351 
L 93.926167 154.657362 
L 94.337469 155.158802 
L 94.748771 155.416798 
L 95.160074 155.430386 
L 95.571376 155.199516 
L 95.982678 154.725049 
L 96.39398 154.008759 
L 97.216585 151.862307 
L 98.039189 148.792207 
L 98.861794 144.844298 
L 100.0957 137.408856 
L 101.329607 128.383237 
L 102.974816 114.405151 
L 105.442629 91.000331 
L 108.321744 63.750074 
L 109.966953 50.014319 
L 111.20086 41.234029 
L 112.434767 34.089438 
L 113.257371 30.355953 
L 114.079975 27.512996 
L 114.90258 25.603014 
L 115.313882 25.007357 
L 115.725184 24.654524 
L 116.136486 24.545832 
L 116.547789 24.681688 
L 116.959091 25.061583 
L 117.370393 25.684099 
L 118.192998 27.646793 
L 119.015602 30.540463 
L 119.838206 34.321906 
L 121.072113 41.531717 
L 122.30602 50.367241 
L 123.951229 64.157965 
L 126.419042 87.44415 
L 129.709459 118.471174 
L 131.354668 131.893345 
L 132.588575 140.36267 
L 133.822482 147.142742 
L 134.645086 150.609435 
L 135.46769 153.171188 
L 136.290295 154.78975 
L 136.701597 155.237221 
L 137.112899 155.440956 
L 137.524201 155.400192 
L 137.935504 155.115082 
L 138.346806 154.586692 
L 138.758108 153.816995 
L 139.580713 151.566075 
L 140.403317 148.395931 
L 141.225921 144.353894 
L 142.459828 136.7914 
L 143.693735 127.659439 
L 145.338943 113.57783 
L 147.806757 90.111152 
L 150.685872 62.937945 
L 152.331081 49.314024 
L 153.564988 40.645418 
L 154.798894 33.632252 
L 155.621499 29.995199 
L 156.444103 27.25406 
L 157.266708 25.449761 
L 157.67801 24.907905 
L 158.089312 24.609243 
L 158.500614 24.554892 
L 158.911916 24.745055 
L 159.323219 25.179021 
L 159.734521 25.855168 
L 160.557125 27.923009 
L 161.37973 30.917703 
L 162.202334 34.794537 
L 163.436241 42.133788 
L 164.670147 51.078556 
L 166.315356 64.977305 
L 168.78317 88.332898 
L 172.073587 119.269211 
L 173.718796 132.572683 
L 174.952703 140.925977 
L 176.186609 147.571122 
L 177.009214 150.939582 
L 177.831818 153.398171 
L 178.654423 154.91018 
L 179.065725 155.3036 
L 179.477027 155.453035 
L 179.888329 155.357927 
L 180.299631 155.018631 
L 180.710934 154.436414 
L 181.533538 152.552821 
L 182.356143 149.73527 
L 183.178747 146.02583 
L 184.412654 138.913972 
L 185.64656 130.161452 
L 187.291769 116.453418 
L 189.759582 93.22211 
L 193.05 62.13081 
L 194.695209 48.621239 
L 195.929115 40.065915 
L 197.163022 33.185469 
L 197.985627 29.645518 
L 198.808231 27.006703 
L 199.630835 25.308421 
L 200.042138 24.820465 
L 200.45344 24.57603 
L 200.864742 24.57603 
L 201.276044 24.820465 
L 201.687346 25.308421 
L 202.098649 26.038076 
L 202.921253 28.210683 
L 203.743857 31.305848 
L 204.566462 35.277358 
L 205.800369 42.744692 
L 207.034275 51.797054 
L 208.679484 65.801263 
L 211.147297 89.221953 
L 214.026413 116.453418 
L 215.671622 130.161452 
L 216.905528 138.913972 
L 218.139435 146.02583 
L 218.962039 149.73527 
L 219.784644 152.552821 
L 220.607248 154.436414 
L 221.01855 155.018631 
L 221.429853 155.357927 
L 221.841155 155.453035 
L 222.252457 155.3036 
L 222.663759 154.91018 
L 223.075061 154.274245 
L 223.897666 152.28523 
L 224.72027 149.366253 
L 225.542875 145.560896 
L 226.776781 138.3186 
L 228.010688 129.455611 
L 229.655897 115.637641 
L 232.12371 92.333701 
L 235.414128 61.328819 
L 237.059337 47.936091 
L 238.293243 39.495628 
L 239.52715 32.749171 
L 240.349754 29.306977 
L 241.172359 26.770972 
L 241.994963 25.179021 
L 242.406265 24.745055 
L 242.817568 24.554892 
L 243.22887 24.609243 
L 243.640172 24.907905 
L 244.051474 25.449761 
L 244.874079 27.25406 
L 245.696683 29.995199 
L 246.519287 33.632252 
L 247.341892 38.110915 
L 248.575799 46.257456 
L 249.809705 55.871201 
L 251.454914 70.408744 
L 257.624447 127.659439 
L 258.858354 136.7914 
L 260.09226 144.353894 
L 260.914865 148.395931 
L 261.737469 151.566075 
L 262.560074 153.816995 
L 262.971376 154.586692 
L 263.382678 155.115082 
L 263.79398 155.400192 
L 264.205283 155.440956 
L 264.616585 155.237221 
L 265.027887 154.78975 
L 265.439189 154.100213 
L 266.261794 152.006144 
L 267.084398 148.98628 
L 267.907002 145.085709 
L 269.140909 137.71431 
L 270.374816 128.742488 
L 272.020025 114.817133 
L 274.487838 91.444861 
L 277.366953 64.157965 
L 279.012162 50.367241 
L 280.246069 41.531717 
L 281.479975 34.321906 
L 282.30258 30.540463 
L 283.125184 27.646793 
L 283.947789 25.684099 
L 284.359091 25.061583 
L 284.770393 24.681688 
L 285.181695 24.545832 
L 285.592998 24.654524 
L 286.0043 25.007357 
L 286.415602 25.603014 
L 287.238206 27.512996 
L 288.060811 30.355953 
L 288.883415 34.089438 
L 290.117322 41.234029 
L 291.351229 50.014319 
L 292.996437 63.750074 
L 295.464251 86.999943 
L 298.754668 118.070176 
L 300.399877 131.550769 
L 301.633784 140.077525 
L 302.86769 146.924592 
L 303.690295 150.440164 
L 304.512899 153.053322 
L 305.335504 154.725049 
L 305.746806 155.199516 
L 306.158108 155.430386 
L 306.56941 155.416798 
L 306.980713 155.158802 
L 307.392015 154.657362 
L 307.803317 153.914351 
L 308.625921 151.715615 
L 309.448526 148.59542 
L 310.27113 144.600356 
L 311.505037 137.101215 
L 312.738943 128.022215 
L 314.384152 113.992044 
L 316.851966 90.555754 
L 319.731081 63.343395 
L 321.37629 49.663241 
L 322.610197 40.938592 
L 323.844103 33.85955 
L 324.666708 30.174196 
L 325.489312 27.382083 
L 326.311916 25.5249 
L 326.723219 24.956131 
L 327.134521 24.630375 
L 327.545823 24.548852 
L 327.957125 24.711865 
L 328.368428 25.118805 
L 328.77973 25.768152 
L 329.602334 27.783466 
L 330.424939 30.727716 
L 331.247543 34.556942 
L 332.48145 41.831641 
L 333.715356 50.721992 
L 335.360565 64.567048 
L 337.828378 87.888475 
L 341.118796 118.870858 
L 342.764005 132.233988 
L 343.997912 140.645492 
L 345.231818 147.358255 
L 346.054423 150.775911 
L 346.877027 153.286139 
L 347.699631 154.851461 
L 348.110934 155.271917 
L 348.522236 155.448505 
L 348.933538 155.380568 
L 349.34484 155.068358 
L 349.756143 154.513041 
L 350.578747 152.68229 
L 351.401351 149.915648 
L 352.223956 146.254424 
L 353.04656 141.753282 
L 354.280467 133.576919 
L 355.514373 123.938909 
L 357.159582 109.37903 
L 363.329115 52.158955 
L 364.563022 43.053422 
L 365.796929 35.522561 
L 366.619533 31.503987 
L 367.442138 28.3588 
L 368.264742 26.133959 
L 368.676044 25.3776 
L 369.087346 24.862682 
L 369.498649 24.591128 
L 369.909951 24.563952 
L 370.321253 24.781255 
L 370.732555 25.242227 
L 371.143857 25.945144 
L 371.966462 28.065417 
L 372.789066 31.110417 
L 373.611671 35.03468 
L 374.845577 42.438143 
L 376.079484 51.436915 
L 377.724693 65.388716 
L 380.192506 88.777397 
L 383.071622 116.04613 
L 384.71683 129.80945 
L 385.950737 138.617407 
L 387.184644 145.79465 
L 388.007248 149.552135 
L 388.829853 152.420466 
L 389.652457 154.356814 
L 390.063759 154.965904 
L 390.475061 155.332271 
L 390.886364 155.454545 
L 391.297666 155.332271 
L 391.708968 154.965904 
L 392.12027 154.356814 
L 392.942875 152.420466 
L 393.765479 149.552135 
L 394.588084 145.79465 
L 395.82199 138.617407 
L 397.055897 129.80945 
L 398.701106 116.04613 
L 401.168919 92.77797 
L 404.459337 61.729162 
L 406.104545 48.277702 
L 407.338452 39.779613 
L 408.572359 32.966004 
L 409.394963 29.474851 
L 410.217568 26.887381 
L 411.040172 25.242227 
L 411.451474 24.781255 
L 411.862776 24.563952 
L 412.274079 24.591128 
L 412.685381 24.862682 
L 413.096683 25.3776 
L 413.507985 26.133959 
L 414.33059 28.3588 
L 415.153194 31.503987 
L 415.975799 35.522561 
L 417.209705 43.053422 
L 418.443612 52.158955 
L 420.088821 66.214926 
L 422.556634 89.666545 
L 425.435749 116.859485 
L 427.080958 130.511601 
L 428.314865 139.208279 
L 429.548771 146.254424 
L 430.371376 149.915648 
L 431.19398 152.68229 
L 432.016585 154.513041 
L 432.427887 155.068358 
L 432.839189 155.380568 
L 433.250491 155.448505 
L 433.661794 155.271917 
L 434.073096 154.851461 
L 434.484398 154.18871 
L 435.307002 152.147121 
L 436.129607 149.177632 
L 436.952211 145.324579 
L 438.186118 138.017563 
L 439.420025 129.099952 
L 441.065233 115.227969 
L 443.533047 91.889324 
L 446.823464 60.929798 
L 448.468673 47.59642 
L 449.70258 39.213973 
L 450.936486 32.53498 
L 451.759091 29.141903 
L 452.581695 26.65748 
L 453.4043 25.118805 
L 453.815602 24.711865 
L 454.226904 24.548852 
L 454.638206 24.630375 
L 455.049509 24.956131 
L 455.460811 25.5249 
L 456.283415 27.382083 
L 457.10602 30.174196 
L 457.928624 33.85955 
L 458.751229 38.383119 
L 459.985135 46.589208 
L 461.219042 56.251372 
L 462.864251 70.833419 
L 469.033784 128.022215 
L 470.26769 137.101215 
L 471.501597 144.600356 
L 472.324201 148.59542 
L 473.146806 151.715615 
L 473.96941 153.914351 
L 474.380713 154.657362 
L 474.792015 155.158802 
L 475.203317 155.416798 
L 475.614619 155.430386 
L 476.025921 155.199516 
L 476.437224 154.725049 
L 476.848526 154.008759 
L 477.67113 151.862307 
L 478.493735 148.792207 
L 479.316339 144.844298 
L 480.550246 137.408856 
L 481.784152 128.383237 
L 482.195455 125.072299 
L 482.195455 125.072299 
" style="fill:none;stroke:#0000ff;stroke-linecap:square;"/>
   </g>
   <g id="line2d_2">
    <path clip-path="url(#p8f5048e837)" d="M 71.304545 110.226567 
L 73.772359 122.405881 
L 75.82887 131.550769 
L 77.474079 138.017563 
L 79.119287 143.599509 
L 80.353194 147.142742 
L 81.587101 150.093262 
L 82.821007 152.420466 
L 83.643612 153.613453 
L 84.466216 154.513041 
L 85.288821 155.115082 
L 86.111425 155.416798 
L 86.934029 155.416798 
L 87.756634 155.115082 
L 88.579238 154.513041 
L 89.401843 153.613453 
L 90.224447 152.420466 
L 91.458354 150.093262 
L 92.69226 147.142742 
L 93.926167 143.599509 
L 95.571376 138.017563 
L 97.216585 131.550769 
L 99.273096 122.405881 
L 101.740909 110.226567 
L 105.442629 90.555754 
L 109.966953 66.629687 
L 112.434767 54.740206 
L 114.491278 45.927723 
L 116.136486 39.779613 
L 117.781695 34.556942 
L 119.015602 31.305848 
L 120.249509 28.663558 
L 121.483415 26.65748 
L 122.30602 25.684099 
L 123.128624 25.007357 
L 123.951229 24.630375 
L 124.773833 24.554892 
L 125.596437 24.781255 
L 126.419042 25.308421 
L 127.241646 26.133959 
L 128.064251 27.25406 
L 128.886855 28.663558 
L 130.120762 31.305848 
L 131.354668 34.556942 
L 132.588575 38.383119 
L 134.233784 44.309858 
L 135.878993 51.078556 
L 137.935504 60.532119 
L 140.403317 72.969663 
L 145.338943 99.415161 
L 148.629361 116.453418 
L 151.097174 128.022215 
L 153.153686 136.479426 
L 154.798894 142.2929 
L 156.032801 146.02583 
L 157.266708 149.177632 
L 158.500614 151.715615 
L 159.734521 153.613453 
L 160.557125 154.513041 
L 161.37973 155.115082 
L 162.202334 155.416798 
L 163.024939 155.416798 
L 163.847543 155.115082 
L 164.670147 154.513041 
L 165.492752 153.613453 
L 166.315356 152.420466 
L 167.549263 150.093262 
L 168.78317 147.142742 
L 170.017076 143.599509 
L 171.662285 138.017563 
L 173.307494 131.550769 
L 175.364005 122.405881 
L 177.831818 110.226567 
L 181.533538 90.555754 
L 186.057862 66.629687 
L 188.525676 54.740206 
L 190.582187 45.927723 
L 192.227396 39.779613 
L 193.872604 34.556942 
L 195.106511 31.305848 
L 196.340418 28.663558 
L 197.574324 26.65748 
L 198.396929 25.684099 
L 199.219533 25.007357 
L 200.042138 24.630375 
L 200.864742 24.554892 
L 201.687346 24.781255 
L 202.509951 25.308421 
L 203.332555 26.133959 
L 204.15516 27.25406 
L 204.977764 28.663558 
L 206.211671 31.305848 
L 207.445577 34.556942 
L 208.679484 38.383119 
L 210.324693 44.309858 
L 211.969902 51.078556 
L 214.026413 60.532119 
L 216.494226 72.969663 
L 221.429853 99.415161 
L 224.72027 116.453418 
L 227.188084 128.022215 
L 229.244595 136.479426 
L 230.889803 142.2929 
L 232.12371 146.02583 
L 233.357617 149.177632 
L 234.591523 151.715615 
L 235.82543 153.613453 
L 236.648034 154.513041 
L 237.470639 155.115082 
L 238.293243 155.416798 
L 239.115848 155.416798 
L 239.938452 155.115082 
L 240.761057 154.513041 
L 241.583661 153.613453 
L 242.406265 152.420466 
L 243.640172 150.093262 
L 244.874079 147.142742 
L 246.107985 143.599509 
L 247.753194 138.017563 
L 249.398403 131.550769 
L 251.454914 122.405881 
L 253.922727 110.226567 
L 257.624447 90.555754 
L 262.148771 66.629687 
L 264.616585 54.740206 
L 266.673096 45.927723 
L 268.318305 39.779613 
L 269.963514 34.556942 
L 271.19742 31.305848 
L 272.431327 28.663558 
L 273.665233 26.65748 
L 274.487838 25.684099 
L 275.310442 25.007357 
L 276.133047 24.630375 
L 276.955651 24.554892 
L 277.778256 24.781255 
L 278.60086 25.308421 
L 279.423464 26.133959 
L 280.246069 27.25406 
L 281.068673 28.663558 
L 282.30258 31.305848 
L 283.536486 34.556942 
L 284.770393 38.383119 
L 286.415602 44.309858 
L 288.060811 51.078556 
L 290.117322 60.532119 
L 292.585135 72.969663 
L 297.520762 99.415161 
L 300.811179 116.453418 
L 303.278993 128.022215 
L 305.335504 136.479426 
L 306.980713 142.2929 
L 308.214619 146.02583 
L 309.448526 149.177632 
L 310.682432 151.715615 
L 311.916339 153.613453 
L 312.738943 154.513041 
L 313.561548 155.115082 
L 314.384152 155.416798 
L 315.206757 155.416798 
L 316.029361 155.115082 
L 316.851966 154.513041 
L 317.67457 153.613453 
L 318.497174 152.420466 
L 319.731081 150.093262 
L 320.964988 147.142742 
L 322.198894 143.599509 
L 323.844103 138.017563 
L 325.489312 131.550769 
L 327.545823 122.405881 
L 330.013636 110.226567 
L 333.715356 90.555754 
L 338.239681 66.629687 
L 340.707494 54.740206 
L 342.764005 45.927723 
L 344.409214 39.779613 
L 346.054423 34.556942 
L 347.288329 31.305848 
L 348.522236 28.663558 
L 349.756143 26.65748 
L 350.578747 25.684099 
L 351.401351 25.007357 
L 352.223956 24.630375 
L 353.04656 24.554892 
L 353.869165 24.781255 
L 354.691769 25.308421 
L 355.514373 26.133959 
L 356.336978 27.25406 
L 357.159582 28.663558 
L 358.393489 31.305848 
L 359.627396 34.556942 
L 360.861302 38.383119 
L 362.506511 44.309858 
L 364.15172 51.078556 
L 366.208231 60.532119 
L 368.676044 72.969663 
L 373.611671 99.415161 
L 376.902088 116.453418 
L 379.369902 128.022215 
L 381.426413 136.479426 
L 383.071622 142.2929 
L 384.305528 146.02583 
L 385.539435 149.177632 
L 386.773342 151.715615 
L 388.007248 153.613453 
L 388.829853 154.513041 
L 389.652457 155.115082 
L 390.475061 155.416798 
L 391.297666 155.416798 
L 392.12027 155.115082 
L 392.942875 154.513041 
L 393.765479 153.613453 
L 394.588084 152.420466 
L 395.82199 150.093262 
L 397.055897 147.142742 
L 398.289803 143.599509 
L 399.935012 138.017563 
L 401.580221 131.550769 
L 403.636732 122.405881 
L 406.104545 110.226567 
L 409.806265 90.555754 
L 414.33059 66.629687 
L 416.798403 54.740206 
L 418.854914 45.927723 
L 420.500123 39.779613 
L 422.145332 34.556942 
L 423.379238 31.305848 
L 424.613145 28.663558 
L 425.847052 26.65748 
L 426.669656 25.684099 
L 427.49226 25.007357 
L 428.314865 24.630375 
L 429.137469 24.554892 
L 429.960074 24.781255 
L 430.782678 25.308421 
L 431.605283 26.133959 
L 432.427887 27.25406 
L 433.250491 28.663558 
L 434.484398 31.305848 
L 435.718305 34.556942 
L 436.952211 38.383119 
L 438.59742 44.309858 
L 440.242629 51.078556 
L 442.29914 60.532119 
L 444.766953 72.969663 
L 449.70258 99.415161 
L 452.992998 116.453418 
L 455.460811 128.022215 
L 457.517322 136.479426 
L 459.162531 142.2929 
L 460.396437 146.02583 
L 461.630344 149.177632 
L 462.864251 151.715615 
L 464.098157 153.613453 
L 464.920762 154.513041 
L 465.743366 155.115082 
L 466.565971 155.416798 
L 467.388575 155.416798 
L 468.211179 155.115082 
L 469.033784 154.513041 
L 469.856388 153.613453 
L 470.678993 152.420466 
L 471.912899 150.093262 
L 473.146806 147.142742 
L 474.380713 143.599509 
L 476.025921 138.017563 
L 477.67113 131.550769 
L 479.727641 122.405881 
L 482.195455 110.226567 
L 482.195455 110.226567 
" style="fill:none;stroke:#ff0000;stroke-linecap:square;"/>
   </g>
   <g id="line2d_3">
    <defs>
     <path d="M 0 3 
C 0.795609 3 1.55874 2.683901 2.12132 2.12132 
C 2.683901 1.55874 3 0.795609 3 0 
C 3 -0.795609 2.683901 -1.55874 2.12132 -2.12132 
C 1.55874 -2.683901 0.795609 -3 0 -3 
C -0.795609 -3 -1.55874 -2.683901 -2.12132 -2.12132 
C -2.683901 -1.55874 -3 -0.795609 -3 0 
C -3 0.795609 -2.683901 1.55874 -2.12132 2.12132 
C -1.55874 2.683901 -0.795609 3 0 3 
z
" id="m531a3033dc" style="stroke:#000000;stroke-width:0.5;"/>
    </defs>
    <g clip-path="url(#p8f5048e837)">
     <use style="fill:#ffa500;stroke:#000000;stroke-width:0.5;" x="86.5227272727" xlink:href="#m531a3033dc" y="155.454545455"/>
     <use style="fill:#ffa500;stroke:#000000;stroke-width:0.5;" x="124.568181818" xlink:href="#m531a3033dc" y="24.5454545455"/>
     <use style="fill:#ffa500;stroke:#000000;stroke-width:0.5;" x="162.613636364" xlink:href="#m531a3033dc" y="155.454545455"/>
     <use style="fill:#ffa500;stroke:#000000;stroke-width:0.5;" x="200.659090909" xlink:href="#m531a3033dc" y="24.5454545455"/>
     <use style="fill:#ffa500;stroke:#000000;stroke-width:0.5;" x="238.704545455" xlink:href="#m531a3033dc" y="155.454545455"/>
     <use style="fill:#ffa500;stroke:#000000;stroke-width:0.5;" x="276.75" xlink:href="#m531a3033dc" y="24.5454545455"/>
     <use style="fill:#ffa500;stroke:#000000;stroke-width:0.5;" x="314.795454545" xlink:href="#m531a3033dc" y="155.454545455"/>
     <use style="fill:#ffa500;stroke:#000000;stroke-width:0.5;" x="352.840909091" xlink:href="#m531a3033dc" y="24.5454545455"/>
     <use style="fill:#ffa500;stroke:#000000;stroke-width:0.5;" x="390.886363636" xlink:href="#m531a3033dc" y="155.454545455"/>
     <use style="fill:#ffa500;stroke:#000000;stroke-width:0.5;" x="428.931818182" xlink:href="#m531a3033dc" y="24.5454545455"/>
     <use style="fill:#ffa500;stroke:#000000;stroke-width:0.5;" x="466.977272727" xlink:href="#m531a3033dc" y="155.454545455"/>
    </g>
   </g>
   <g id="patch_3">
    <path d="M 67.5 18 
L 486 18 
" style="fill:none;stroke:#000000;stroke-linecap:square;stroke-linejoin:miter;"/>
   </g>
   <g id="patch_4">
    <path d="M 486 162 
L 486 18 
" style="fill:none;stroke:#000000;stroke-linecap:square;stroke-linejoin:miter;"/>
   </g>
   <g id="patch_5">
    <path d="M 67.5 162 
L 486 162 
" style="fill:none;stroke:#000000;stroke-linecap:square;stroke-linejoin:miter;"/>
   </g>
   <g id="patch_6">
    <path d="M 67.5 162 
L 67.5 18 
" style="fill:none;stroke:#000000;stroke-linecap:square;stroke-linejoin:miter;"/>
   </g>
   <g id="matplotlib.axis_1">
    <g id="xtick_1">
     <g id="line2d_4">
      <defs>
       <path d="M 0 0 
L 0 -4 
" id="m32475b7672" style="stroke:#000000;stroke-width:0.5;"/>
      </defs>
      <g>
       <use style="stroke:#000000;stroke-width:0.5;" x="86.5227272727" xlink:href="#m32475b7672" y="162.0"/>
      </g>
     </g>
     <g id="line2d_5">
      <defs>
       <path d="M 0 0 
L 0 4 
" id="m1c848fbe8d" style="stroke:#000000;stroke-width:0.5;"/>
      </defs>
      <g>
       <use style="stroke:#000000;stroke-width:0.5;" x="86.5227272727" xlink:href="#m1c848fbe8d" y="18.0"/>
      </g>
     </g>
     <g id="text_1">
      <text style="font-family:Bitstream Vera Sans;font-size:12.0px;font-style:normal;font-weight:400;text-anchor:middle;" transform="rotate(-0.000000, 86.522727, 175.118125)" x="86.5227272727" y="175.118125">0</text>
     </g>
    </g>
    <g id="xtick_2">
     <g id="line2d_6">
      <g>
       <use style="stroke:#000000;stroke-width:0.5;" x="124.568181818" xlink:href="#m32475b7672" y="162.0"/>
      </g>
     </g>
     <g id="line2d_7">
      <g>
       <use style="stroke:#000000;stroke-width:0.5;" x="124.568181818" xlink:href="#m1c848fbe8d" y="18.0"/>
      </g>
     </g>
     <g id="text_2">
      <text style="font-family:Bitstream Vera Sans;font-size:12.0px;font-style:normal;font-weight:400;text-anchor:middle;" transform="rotate(-0.000000, 124.568182, 175.118125)" x="124.568181818" y="175.118125">1</text>
     </g>
    </g>
    <g id="xtick_3">
     <g id="line2d_8">
      <g>
       <use style="stroke:#000000;stroke-width:0.5;" x="162.613636364" xlink:href="#m32475b7672" y="162.0"/>
      </g>
     </g>
     <g id="line2d_9">
      <g>
       <use style="stroke:#000000;stroke-width:0.5;" x="162.613636364" xlink:href="#m1c848fbe8d" y="18.0"/>
      </g>
     </g>
     <g id="text_3">
      <text style="font-family:Bitstream Vera Sans;font-size:12.0px;font-style:normal;font-weight:400;text-anchor:middle;" transform="rotate(-0.000000, 162.613636, 175.118125)" x="162.613636364" y="175.118125">2</text>
     </g>
    </g>
    <g id="xtick_4">
     <g id="line2d_10">
      <g>
       <use style="stroke:#000000;stroke-width:0.5;" x="200.659090909" xlink:href="#m32475b7672" y="162.0"/>
      </g>
     </g>
     <g id="line2d_11">
      <g>
       <use style="stroke:#000000;stroke-width:0.5;" x="200.659090909" xlink:href="#m1c848fbe8d" y="18.0"/>
      </g>
     </g>
     <g id="text_4">
      <text style="font-family:Bitstream Vera Sans;font-size:12.0px;font-style:normal;font-weight:400;text-anchor:middle;" transform="rotate(-0.000000, 200.659091, 175.118125)" x="200.659090909" y="175.118125">3</text>
     </g>
    </g>
    <g id="xtick_5">
     <g id="line2d_12">
      <g>
       <use style="stroke:#000000;stroke-width:0.5;" x="238.704545455" xlink:href="#m32475b7672" y="162.0"/>
      </g>
     </g>
     <g id="line2d_13">
      <g>
       <use style="stroke:#000000;stroke-width:0.5;" x="238.704545455" xlink:href="#m1c848fbe8d" y="18.0"/>
      </g>
     </g>
     <g id="text_5">
      <text style="font-family:Bitstream Vera Sans;font-size:12.0px;font-style:normal;font-weight:400;text-anchor:middle;" transform="rotate(-0.000000, 238.704545, 175.118125)" x="238.704545455" y="175.118125">4</text>
     </g>
    </g>
    <g id="xtick_6">
     <g id="line2d_14">
      <g>
       <use style="stroke:#000000;stroke-width:0.5;" x="276.75" xlink:href="#m32475b7672" y="162.0"/>
      </g>
     </g>
     <g id="line2d_15">
      <g>
       <use style="stroke:#000000;stroke-width:0.5;" x="276.75" xlink:href="#m1c848fbe8d" y="18.0"/>
      </g>
     </g>
     <g id="text_6">
      <text style="font-family:Bitstream Vera Sans;font-size:12.0px;font-style:normal;font-weight:400;text-anchor:middle;" transform="rotate(-0.000000, 276.750000, 175.118125)" x="276.75" y="175.118125">5</text>
     </g>
    </g>
    <g id="xtick_7">
     <g id="line2d_16">
      <g>
       <use style="stroke:#000000;stroke-width:0.5;" x="314.795454545" xlink:href="#m32475b7672" y="162.0"/>
      </g>
     </g>
     <g id="line2d_17">
      <g>
       <use style="stroke:#000000;stroke-width:0.5;" x="314.795454545" xlink:href="#m1c848fbe8d" y="18.0"/>
      </g>
     </g>
     <g id="text_7">
      <text style="font-family:Bitstream Vera Sans;font-size:12.0px;font-style:normal;font-weight:400;text-anchor:middle;" transform="rotate(-0.000000, 314.795455, 175.118125)" x="314.795454545" y="175.118125">6</text>
     </g>
    </g>
    <g id="xtick_8">
     <g id="line2d_18">
      <g>
       <use style="stroke:#000000;stroke-width:0.5;" x="352.840909091" xlink:href="#m32475b7672" y="162.0"/>
      </g>
     </g>
     <g id="line2d_19">
      <g>
       <use style="stroke:#000000;stroke-width:0.5;" x="352.840909091" xlink:href="#m1c848fbe8d" y="18.0"/>
      </g>
     </g>
     <g id="text_8">
      <text style="font-family:Bitstream Vera Sans;font-size:12.0px;font-style:normal;font-weight:400;text-anchor:middle;" transform="rotate(-0.000000, 352.840909, 175.118125)" x="352.840909091" y="175.118125">7</text>
     </g>
    </g>
    <g id="xtick_9">
     <g id="line2d_20">
      <g>
       <use style="stroke:#000000;stroke-width:0.5;" x="390.886363636" xlink:href="#m32475b7672" y="162.0"/>
      </g>
     </g>
     <g id="line2d_21">
      <g>
       <use style="stroke:#000000;stroke-width:0.5;" x="390.886363636" xlink:href="#m1c848fbe8d" y="18.0"/>
      </g>
     </g>
     <g id="text_9">
      <text style="font-family:Bitstream Vera Sans;font-size:12.0px;font-style:normal;font-weight:400;text-anchor:middle;" transform="rotate(-0.000000, 390.886364, 175.118125)" x="390.886363636" y="175.118125">8</text>
     </g>
    </g>
    <g id="xtick_10">
     <g id="line2d_22">
      <g>
       <use style="stroke:#000000;stroke-width:0.5;" x="428.931818182" xlink:href="#m32475b7672" y="162.0"/>
      </g>
     </g>
     <g id="line2d_23">
      <g>
       <use style="stroke:#000000;stroke-width:0.5;" x="428.931818182" xlink:href="#m1c848fbe8d" y="18.0"/>
      </g>
     </g>
     <g id="text_10">
      <text style="font-family:Bitstream Vera Sans;font-size:12.0px;font-style:normal;font-weight:400;text-anchor:middle;" transform="rotate(-0.000000, 428.931818, 175.118125)" x="428.931818182" y="175.118125">9</text>
     </g>
    </g>
    <g id="xtick_11">
     <g id="line2d_24">
      <g>
       <use style="stroke:#000000;stroke-width:0.5;" x="466.977272727" xlink:href="#m32475b7672" y="162.0"/>
      </g>
     </g>
     <g id="line2d_25">
      <g>
       <use style="stroke:#000000;stroke-width:0.5;" x="466.977272727" xlink:href="#m1c848fbe8d" y="18.0"/>
      </g>
     </g>
     <g id="text_11">
      <text style="font-family:Bitstream Vera Sans;font-size:12.0px;font-style:normal;font-weight:400;text-anchor:middle;" transform="rotate(-0.000000, 466.977273, 175.118125)" x="466.977272727" y="175.118125">10</text>
     </g>
    </g>
   </g>
   <g id="matplotlib.axis_2">
    <g id="ytick_1">
     <g id="line2d_26">
      <defs>
       <path d="M 0 0 
L 4 0 
" id="m5460667605" style="stroke:#000000;stroke-width:0.5;"/>
      </defs>
      <g>
       <use style="stroke:#000000;stroke-width:0.5;" x="67.5" xlink:href="#m5460667605" y="155.454545455"/>
      </g>
     </g>
     <g id="line2d_27">
      <defs>
       <path d="M 0 0 
L -4 0 
" id="m576614299f" style="stroke:#000000;stroke-width:0.5;"/>
      </defs>
      <g>
       <use style="stroke:#000000;stroke-width:0.5;" x="486.0" xlink:href="#m576614299f" y="155.454545455"/>
      </g>
     </g>
    </g>
    <g id="ytick_2">
     <g id="line2d_28">
      <g>
       <use style="stroke:#000000;stroke-width:0.5;" x="67.5" xlink:href="#m5460667605" y="90.0"/>
      </g>
     </g>
     <g id="line2d_29">
      <g>
       <use style="stroke:#000000;stroke-width:0.5;" x="486.0" xlink:href="#m576614299f" y="90.0"/>
      </g>
     </g>
     <g id="text_12">
      <text style="font-family:Bitstream Vera Sans;font-size:12.0px;font-style:normal;font-weight:400;text-anchor:end;" transform="rotate(-0.000000, 63.500000, 93.311250)" x="63.5" y="93.31125">0</text>
     </g>
    </g>
    <g id="ytick_3">
     <g id="line2d_30">
      <g>
       <use style="stroke:#000000;stroke-width:0.5;" x="67.5" xlink:href="#m5460667605" y="24.5454545455"/>
      </g>
     </g>
     <g id="line2d_31">
      <g>
       <use style="stroke:#000000;stroke-width:0.5;" x="486.0" xlink:href="#m576614299f" y="24.5454545455"/>
      </g>
     </g>
    </g>
   </g>
  </g>
 </g>
 <defs>
  <clipPath id="p8f5048e837">
   <rect height="144.0" width="418.5" x="67.5" y="18.0"/>
  </clipPath>
 </defs>
</svg>
