<?xml version="1.0" encoding="utf-8" standalone="no"?>
<!DOCTYPE svg PUBLIC "-//W3C//DTD SVG 1.1//EN"
  "http://www.w3.org/Graphics/SVG/1.1/DTD/svg11.dtd">
<!-- Created with matplotlib (http://matplotlib.org/) -->
<svg height="180pt" version="1.1" viewBox="0 0 540 180" width="540pt" xmlns="http://www.w3.org/2000/svg" xmlns:xlink="http://www.w3.org/1999/xlink">
 <defs>
  <style type="text/css">
*{stroke-linecap:butt;stroke-linejoin:round;stroke-miterlimit:100000;}
  </style>
 </defs>
 <g id="figure_1">
  <g id="patch_1">
   <path d="M 0 180 
L 540 180 
L 540 0 
L 0 0 
L 0 180 
z
" style="fill:none;"/>
  </g>
  <g id="axes_1">
   <g id="patch_2">
    <path d="M 67.5 162 
L 486 162 
L 486 18 
L 67.5 18 
L 67.5 162 
z
" style="fill:none;"/>
   </g>
   <g id="LineCollection_1">
    <path clip-path="url(#p038ba42a04)" d="M 86.522727 90 
L 86.522727 110.226567 
" style="fill:none;stroke:#ffa500;"/>
    <path clip-path="url(#p038ba42a04)" d="M 124.568182 90 
L 124.568182 69.773433 
" style="fill:none;stroke:#ffa500;"/>
    <path clip-path="url(#p038ba42a04)" d="M 162.613636 90 
L 162.613636 37.04616 
" style="fill:none;stroke:#ffa500;"/>
    <path clip-path="url(#p038ba42a04)" d="M 200.659091 90 
L 200.659091 24.545455 
" style="fill:none;stroke:#ffa500;"/>
    <path clip-path="url(#p038ba42a04)" d="M 238.704545 90 
L 238.704545 37.04616 
" style="fill:none;stroke:#ffa500;"/>
    <path clip-path="url(#p038ba42a04)" d="M 276.75 90 
L 276.75 69.773433 
" style="fill:none;stroke:#ffa500;"/>
    <path clip-path="url(#p038ba42a04)" d="M 314.795455 90 
L 314.795455 110.226567 
" style="fill:none;stroke:#ffa500;"/>
    <path clip-path="url(#p038ba42a04)" d="M 352.840909 90 
L 352.840909 142.95384 
" style="fill:none;stroke:#ffa500;"/>
    <path clip-path="url(#p038ba42a04)" d="M 390.886364 90 
L 390.886364 155.454545 
" style="fill:none;stroke:#ffa500;"/>
    <path clip-path="url(#p038ba42a04)" d="M 428.931818 90 
L 428.931818 142.95384 
" style="fill:none;stroke:#ffa500;"/>
    <path clip-path="url(#p038ba42a04)" d="M 466.977273 90 
L 466.977273 110.226567 
" style="fill:none;stroke:#ffa500;"/>
   </g>
   <g id="line2d_1">
    <path clip-path="url(#p038ba42a04)" d="M 71.304545 29.141903 
L 71.715848 27.783466 
L 72.12715 26.65748 
L 72.949754 25.118805 
L 73.361057 24.711865 
L 73.772359 24.548852 
L 74.183661 24.630375 
L 74.594963 24.956131 
L 75.006265 25.5249 
L 75.82887 27.382083 
L 76.651474 30.174196 
L 77.474079 33.85955 
L 78.296683 38.383119 
L 79.53059 46.589208 
L 80.764496 56.251372 
L 82.409705 70.833419 
L 88.579238 128.022215 
L 89.813145 137.101215 
L 91.047052 144.600356 
L 91.869656 148.59542 
L 92.69226 151.715615 
L 93.514865 153.914351 
L 93.926167 154.657362 
L 94.337469 155.158802 
L 94.748771 155.416798 
L 95.160074 155.430386 
L 95.571376 155.199516 
L 95.982678 154.725049 
L 96.39398 154.008759 
L 97.216585 151.862307 
L 98.039189 148.792207 
L 98.861794 144.844298 
L 100.0957 137.408856 
L 101.329607 128.383237 
L 102.974816 114.405151 
L 105.442629 91.000331 
L 108.321744 63.750074 
L 109.966953 50.014319 
L 111.20086 41.234029 
L 112.434767 34.089438 
L 113.257371 30.355953 
L 114.079975 27.512996 
L 114.90258 25.603014 
L 115.313882 25.007357 
L 115.725184 24.654524 
L 116.136486 24.545832 
L 116.547789 24.681688 
L 116.959091 25.061583 
L 117.370393 25.684099 
L 118.192998 27.646793 
L 119.015602 30.540463 
L 119.838206 34.321906 
L 121.072113 41.531717 
L 122.30602 50.367241 
L 123.951229 64.157965 
L 126.419042 87.44415 
L 129.709459 118.471174 
L 131.354668 131.893345 
L 132.588575 140.36267 
L 133.822482 147.142742 
L 134.645086 150.609435 
L 135.46769 153.171188 
L 136.290295 154.78975 
L 136.701597 155.237221 
L 137.112899 155.440956 
L 137.524201 155.400192 
L 137.935504 155.115082 
L 138.346806 154.586692 
L 138.758108 153.816995 
L 139.580713 151.566075 
L 140.403317 148.395931 
L 141.225921 144.353894 
L 142.459828 136.7914 
L 143.693735 127.659439 
L 145.338943 113.57783 
L 147.806757 90.111152 
L 150.685872 62.937945 
L 152.331081 49.314024 
L 153.564988 40.645418 
L 154.798894 33.632252 
L 155.621499 29.995199 
L 156.444103 27.25406 
L 157.266708 25.449761 
L 157.67801 24.907905 
L 158.089312 24.609243 
L 158.500614 24.554892 
L 158.911916 24.745055 
L 159.323219 25.179021 
L 159.734521 25.855168 
L 160.557125 27.923009 
L 161.37973 30.917703 
L 162.202334 34.794537 
L 163.436241 42.133788 
L 164.670147 51.078556 
L 166.315356 64.977305 
L 168.78317 88.332898 
L 172.073587 119.269211 
L 173.718796 132.572683 
L 174.952703 140.925977 
L 176.186609 147.571122 
L 177.009214 150.939582 
L 177.831818 153.398171 
L 178.654423 154.91018 
L 179.065725 155.3036 
L 179.477027 155.453035 
L 179.888329 155.357927 
L 180.299631 155.018631 
L 180.710934 154.436414 
L 181.533538 152.552821 
L 182.356143 149.73527 
L 183.178747 146.02583 
L 184.412654 138.913972 
L 185.64656 130.161452 
L 187.291769 116.453418 
L 189.759582 93.22211 
L 193.05 62.13081 
L 194.695209 48.621239 
L 195.929115 40.065915 
L 197.163022 33.185469 
L 197.985627 29.645518 
L 198.808231 27.006703 
L 199.630835 25.308421 
L 200.042138 24.820465 
L 200.45344 24.57603 
L 200.864742 24.57603 
L 201.276044 24.820465 
L 201.687346 25.308421 
L 202.098649 26.038076 
L 202.921253 28.210683 
L 203.743857 31.305848 
L 204.566462 35.277358 
L 205.800369 42.744692 
L 207.034275 51.797054 
L 208.679484 65.801263 
L 211.147297 89.221953 
L 214.026413 116.453418 
L 215.671622 130.161452 
L 216.905528 138.913972 
L 218.139435 146.02583 
L 218.962039 149.73527 
L 219.784644 152.552821 
L 220.607248 154.436414 
L 221.01855 155.018631 
L 221.429853 155.357927 
L 221.841155 155.453035 
L 222.252457 155.3036 
L 222.663759 154.91018 
L 223.075061 154.274245 
L 223.897666 152.28523 
L 224.72027 149.366253 
L 225.542875 145.560896 
L 226.776781 138.3186 
L 228.010688 129.455611 
L 229.655897 115.637641 
L 232.12371 92.333701 
L 235.414128 61.328819 
L 237.059337 47.936091 
L 238.293243 39.495628 
L 239.52715 32.749171 
L 240.349754 29.306977 
L 241.172359 26.770972 
L 241.994963 25.179021 
L 242.406265 24.745055 
L 242.817568 24.554892 
L 243.22887 24.609243 
L 243.640172 24.907905 
L 244.051474 25.449761 
L 244.874079 27.25406 
L 245.696683 29.995199 
L 246.519287 33.632252 
L 247.341892 38.110915 
L 248.575799 46.257456 
L 249.809705 55.871201 
L 251.454914 70.408744 
L 257.624447 127.659439 
L 258.858354 136.7914 
L 260.09226 144.353894 
L 260.914865 148.395931 
L 261.737469 151.566075 
L 262.560074 153.816995 
L 262.971376 154.586692 
L 263.382678 155.115082 
L 263.79398 155.400192 
L 264.205283 155.440956 
L 264.616585 155.237221 
L 265.027887 154.78975 
L 265.439189 154.100213 
L 266.261794 152.006144 
L 267.084398 148.98628 
L 267.907002 145.085709 
L 269.140909 137.71431 
L 270.374816 128.742488 
L 272.020025 114.817133 
L 274.487838 91.444861 
L 277.366953 64.157965 
L 279.012162 50.367241 
L 280.246069 41.531717 
L 281.479975 34.321906 
L 282.30258 30.540463 
L 283.125184 27.646793 
L 283.947789 25.684099 
L 284.359091 25.061583 
L 284.770393 24.681688 
L 285.181695 24.545832 
L 285.592998 24.654524 
L 286.0043 25.007357 
L 286.415602 25.603014 
L 287.238206 27.512996 
L 288.060811 30.355953 
L 288.883415 34.089438 
L 290.117322 41.234029 
L 291.351229 50.014319 
L 292.996437 63.750074 
L 295.464251 86.999943 
L 298.754668 118.070176 
L 300.399877 131.550769 
L 301.633784 140.077525 
L 302.86769 146.924592 
L 303.690295 150.440164 
L 304.512899 153.053322 
L 305.335504 154.725049 
L 305.746806 155.199516 
L 306.158108 155.430386 
L 306.56941 155.416798 
L 306.980713 155.158802 
L 307.392015 154.657362 
L 307.803317 153.914351 
L 308.625921 151.715615 
L 309.448526 148.59542 
L 310.27113 144.600356 
L 311.505037 137.101215 
L 312.738943 128.022215 
L 314.384152 113.992044 
L 316.851966 90.555754 
L 319.731081 63.343395 
L 321.37629 49.663241 
L 322.610197 40.938592 
L 323.844103 33.85955 
L 324.666708 30.174196 
L 325.489312 27.382083 
L 326.311916 25.5249 
L 326.723219 24.956131 
L 327.134521 24.630375 
L 327.545823 24.548852 
L 327.957125 24.711865 
L 328.368428 25.118805 
L 328.77973 25.768152 
L 329.602334 27.783466 
L 330.424939 30.727716 
L 331.247543 34.556942 
L 332.48145 41.831641 
L 333.715356 50.721992 
L 335.360565 64.567048 
L 337.828378 87.888475 
L 341.118796 118.870858 
L 342.764005 132.233988 
L 343.997912 140.645492 
L 345.231818 147.358255 
L 346.054423 150.775911 
L 346.877027 153.286139 
L 347.699631 154.851461 
L 348.110934 155.271917 
L 348.522236 155.448505 
L 348.933538 155.380568 
L 349.34484 155.068358 
L 349.756143 154.513041 
L 350.578747 152.68229 
L 351.401351 149.915648 
L 352.223956 146.254424 
L 353.04656 141.753282 
L 354.280467 133.576919 
L 355.514373 123.938909 
L 357.159582 109.37903 
L 363.329115 52.158955 
L 364.563022 43.053422 
L 365.796929 35.522561 
L 366.619533 31.503987 
L 367.442138 28.3588 
L 368.264742 26.133959 
L 368.676044 25.3776 
L 369.087346 24.862682 
L 369.498649 24.591128 
L 369.909951 24.563952 
L 370.321253 24.781255 
L 370.732555 25.242227 
L 371.143857 25.945144 
L 371.966462 28.065417 
L 372.789066 31.110417 
L 373.611671 35.03468 
L 374.845577 42.438143 
L 376.079484 51.436915 
L 377.724693 65.388716 
L 380.192506 88.777397 
L 383.071622 116.04613 
L 384.71683 129.80945 
L 385.950737 138.617407 
L 387.184644 145.79465 
L 388.007248 149.552135 
L 388.829853 152.420466 
L 389.652457 154.356814 
L 390.063759 154.965904 
L 390.475061 155.332271 
L 390.886364 155.454545 
L 391.297666 155.332271 
L 391.708968 154.965904 
L 392.12027 154.356814 
L 392.942875 152.420466 
L 393.765479 149.552135 
L 394.588084 145.79465 
L 395.82199 138.617407 
L 397.055897 129.80945 
L 398.701106 116.04613 
L 401.168919 92.77797 
L 404.459337 61.729162 
L 406.104545 48.277702 
L 407.338452 39.779613 
L 408.572359 32.966004 
L 409.394963 29.474851 
L 410.217568 26.887381 
L 411.040172 25.242227 
L 411.451474 24.781255 
L 411.862776 24.563952 
L 412.274079 24.591128 
L 412.685381 24.862682 
L 413.096683 25.3776 
L 413.507985 26.133959 
L 414.33059 28.3588 
L 415.153194 31.503987 
L 415.975799 35.522561 
L 417.209705 43.053422 
L 418.443612 52.158955 
L 420.088821 66.214926 
L 422.556634 89.666545 
L 425.435749 116.859485 
L 427.080958 130.511601 
L 428.314865 139.208279 
L 429.548771 146.254424 
L 430.371376 149.915648 
L 431.19398 152.68229 
L 432.016585 154.513041 
L 432.427887 155.068358 
L 432.839189 155.380568 
L 433.250491 155.448505 
L 433.661794 155.271917 
L 434.073096 154.851461 
L 434.484398 154.18871 
L 435.307002 152.147121 
L 436.129607 149.177632 
L 436.952211 145.324579 
L 438.186118 138.017563 
L 439.420025 129.099952 
L 441.065233 115.227969 
L 443.533047 91.889324 
L 446.823464 60.929798 
L 448.468673 47.59642 
L 449.70258 39.213973 
L 450.936486 32.53498 
L 451.759091 29.141903 
L 452.581695 26.65748 
L 453.4043 25.118805 
L 453.815602 24.711865 
L 454.226904 24.548852 
L 454.638206 24.630375 
L 455.049509 24.956131 
L 455.460811 25.5249 
L 456.283415 27.382083 
L 457.10602 30.174196 
L 457.928624 33.85955 
L 458.751229 38.383119 
L 459.985135 46.589208 
L 461.219042 56.251372 
L 462.864251 70.833419 
L 469.033784 128.022215 
L 470.26769 137.101215 
L 471.501597 144.600356 
L 472.324201 148.59542 
L 473.146806 151.715615 
L 473.96941 153.914351 
L 474.380713 154.657362 
L 474.792015 155.158802 
L 475.203317 155.416798 
L 475.614619 155.430386 
L 476.025921 155.199516 
L 476.437224 154.725049 
L 476.848526 154.008759 
L 477.67113 151.862307 
L 478.493735 148.792207 
L 479.316339 144.844298 
L 480.550246 137.408856 
L 481.784152 128.383237 
L 482.195455 125.072299 
L 482.195455 125.072299 
" style="fill:none;stroke:#ff0000;stroke-linecap:square;"/>
   </g>
   <g id="line2d_2">
    <path clip-path="url(#p038ba42a04)" d="M 71.304545 125.072299 
L 77.062776 119.666212 
L 83.643612 113.162527 
L 91.047052 105.52313 
L 100.918305 94.996981 
L 121.894717 72.540764 
L 129.709459 64.567048 
L 136.290295 58.175233 
L 142.048526 52.887978 
L 147.395455 48.277702 
L 152.331081 44.309858 
L 156.855405 40.938592 
L 161.37973 37.841104 
L 165.492752 35.277358 
L 169.605774 32.966004 
L 173.718796 30.917703 
L 177.420516 29.306977 
L 181.122236 27.923009 
L 184.823956 26.770972 
L 188.525676 25.855168 
L 192.227396 25.179021 
L 195.929115 24.745055 
L 199.630835 24.554892 
L 203.332555 24.609243 
L 207.034275 24.907905 
L 210.735995 25.449761 
L 214.437715 26.232788 
L 218.139435 27.25406 
L 221.841155 28.50976 
L 225.542875 29.995199 
L 229.244595 31.704825 
L 233.357617 33.85955 
L 237.470639 36.273206 
L 241.583661 38.934661 
L 246.107985 42.133788 
L 250.63231 45.600023 
L 255.567936 49.663241 
L 260.914865 54.366438 
L 266.673096 59.740857 
L 272.842629 65.801263 
L 280.246069 73.399349 
L 289.70602 83.452988 
L 313.150246 108.527917 
L 320.553686 116.04613 
L 326.723219 122.018842 
L 332.48145 127.294925 
L 337.828378 131.893345 
L 342.764005 135.84906 
L 347.288329 139.208279 
L 351.812654 142.2929 
L 355.925676 144.844298 
L 360.038698 147.142742 
L 364.15172 149.177632 
L 367.85344 150.775911 
L 371.55516 152.147121 
L 375.25688 153.286139 
L 378.9586 154.18871 
L 382.660319 154.851461 
L 386.362039 155.271917 
L 390.063759 155.448505 
L 393.765479 155.380568 
L 397.467199 155.068358 
L 401.168919 154.513041 
L 404.870639 153.716694 
L 408.572359 152.68229 
L 412.274079 151.413695 
L 415.975799 149.915648 
L 419.677518 148.193747 
L 423.790541 146.02583 
L 427.903563 143.599509 
L 432.016585 140.925977 
L 436.540909 137.71431 
L 441.065233 134.236382 
L 446.00086 130.161452 
L 451.347789 125.446883 
L 457.10602 120.061845 
L 463.686855 113.57783 
L 471.090295 105.954693 
L 480.961548 95.440174 
L 482.195455 94.109925 
L 482.195455 94.109925 
" style="fill:none;stroke:#0000ff;stroke-linecap:square;"/>
   </g>
   <g id="line2d_3">
    <defs>
     <path d="M 0 3 
C 0.795609 3 1.55874 2.683901 2.12132 2.12132 
C 2.683901 1.55874 3 0.795609 3 0 
C 3 -0.795609 2.683901 -1.55874 2.12132 -2.12132 
C 1.55874 -2.683901 0.795609 -3 0 -3 
C -0.795609 -3 -1.55874 -2.683901 -2.12132 -2.12132 
C -2.683901 -1.55874 -3 -0.795609 -3 0 
C -3 0.795609 -2.683901 1.55874 -2.12132 2.12132 
C -1.55874 2.683901 -0.795609 3 0 3 
z
" id="m1b0155b237" style="stroke:#000000;stroke-width:0.5;"/>
    </defs>
    <g clip-path="url(#p038ba42a04)">
     <use style="fill:#ffa500;stroke:#000000;stroke-width:0.5;" x="86.5227272727" xlink:href="#m1b0155b237" y="110.226566905"/>
     <use style="fill:#ffa500;stroke:#000000;stroke-width:0.5;" x="124.568181818" xlink:href="#m1b0155b237" y="69.7734330955"/>
     <use style="fill:#ffa500;stroke:#000000;stroke-width:0.5;" x="162.613636364" xlink:href="#m1b0155b237" y="37.0461603682"/>
     <use style="fill:#ffa500;stroke:#000000;stroke-width:0.5;" x="200.659090909" xlink:href="#m1b0155b237" y="24.5454545455"/>
     <use style="fill:#ffa500;stroke:#000000;stroke-width:0.5;" x="238.704545455" xlink:href="#m1b0155b237" y="37.0461603682"/>
     <use style="fill:#ffa500;stroke:#000000;stroke-width:0.5;" x="276.75" xlink:href="#m1b0155b237" y="69.7734330955"/>
     <use style="fill:#ffa500;stroke:#000000;stroke-width:0.5;" x="314.795454545" xlink:href="#m1b0155b237" y="110.226566905"/>
     <use style="fill:#ffa500;stroke:#000000;stroke-width:0.5;" x="352.840909091" xlink:href="#m1b0155b237" y="142.953839632"/>
     <use style="fill:#ffa500;stroke:#000000;stroke-width:0.5;" x="390.886363636" xlink:href="#m1b0155b237" y="155.454545455"/>
     <use style="fill:#ffa500;stroke:#000000;stroke-width:0.5;" x="428.931818182" xlink:href="#m1b0155b237" y="142.953839632"/>
     <use style="fill:#ffa500;stroke:#000000;stroke-width:0.5;" x="466.977272727" xlink:href="#m1b0155b237" y="110.226566905"/>
    </g>
   </g>
   <g id="patch_3">
    <path d="M 67.5 18 
L 486 18 
" style="fill:none;stroke:#000000;stroke-linecap:square;stroke-linejoin:miter;"/>
   </g>
   <g id="patch_4">
    <path d="M 486 162 
L 486 18 
" style="fill:none;stroke:#000000;stroke-linecap:square;stroke-linejoin:miter;"/>
   </g>
   <g id="patch_5">
    <path d="M 67.5 162 
L 486 162 
" style="fill:none;stroke:#000000;stroke-linecap:square;stroke-linejoin:miter;"/>
   </g>
   <g id="patch_6">
    <path d="M 67.5 162 
L 67.5 18 
" style="fill:none;stroke:#000000;stroke-linecap:square;stroke-linejoin:miter;"/>
   </g>
   <g id="matplotlib.axis_1">
    <g id="xtick_1">
     <g id="line2d_4">
      <defs>
       <path d="M 0 0 
L 0 -4 
" id="me8fc25e2d4" style="stroke:#000000;stroke-width:0.5;"/>
      </defs>
      <g>
       <use style="stroke:#000000;stroke-width:0.5;" x="86.5227272727" xlink:href="#me8fc25e2d4" y="162.0"/>
      </g>
     </g>
     <g id="line2d_5">
      <defs>
       <path d="M 0 0 
L 0 4 
" id="mcc2dc9d7e3" style="stroke:#000000;stroke-width:0.5;"/>
      </defs>
      <g>
       <use style="stroke:#000000;stroke-width:0.5;" x="86.5227272727" xlink:href="#mcc2dc9d7e3" y="18.0"/>
      </g>
     </g>
     <g id="text_1">
      <text style="font-family:Bitstream Vera Sans;font-size:12.0px;font-style:normal;font-weight:400;text-anchor:middle;" transform="rotate(-0.000000, 86.522727, 175.118125)" x="86.5227272727" y="175.118125">0</text>
     </g>
    </g>
    <g id="xtick_2">
     <g id="line2d_6">
      <g>
       <use style="stroke:#000000;stroke-width:0.5;" x="124.568181818" xlink:href="#me8fc25e2d4" y="162.0"/>
      </g>
     </g>
     <g id="line2d_7">
      <g>
       <use style="stroke:#000000;stroke-width:0.5;" x="124.568181818" xlink:href="#mcc2dc9d7e3" y="18.0"/>
      </g>
     </g>
     <g id="text_2">
      <text style="font-family:Bitstream Vera Sans;font-size:12.0px;font-style:normal;font-weight:400;text-anchor:middle;" transform="rotate(-0.000000, 124.568182, 175.118125)" x="124.568181818" y="175.118125">1</text>
     </g>
    </g>
    <g id="xtick_3">
     <g id="line2d_8">
      <g>
       <use style="stroke:#000000;stroke-width:0.5;" x="162.613636364" xlink:href="#me8fc25e2d4" y="162.0"/>
      </g>
     </g>
     <g id="line2d_9">
      <g>
       <use style="stroke:#000000;stroke-width:0.5;" x="162.613636364" xlink:href="#mcc2dc9d7e3" y="18.0"/>
      </g>
     </g>
     <g id="text_3">
      <text style="font-family:Bitstream Vera Sans;font-size:12.0px;font-style:normal;font-weight:400;text-anchor:middle;" transform="rotate(-0.000000, 162.613636, 175.118125)" x="162.613636364" y="175.118125">2</text>
     </g>
    </g>
    <g id="xtick_4">
     <g id="line2d_10">
      <g>
       <use style="stroke:#000000;stroke-width:0.5;" x="200.659090909" xlink:href="#me8fc25e2d4" y="162.0"/>
      </g>
     </g>
     <g id="line2d_11">
      <g>
       <use style="stroke:#000000;stroke-width:0.5;" x="200.659090909" xlink:href="#mcc2dc9d7e3" y="18.0"/>
      </g>
     </g>
     <g id="text_4">
      <text style="font-family:Bitstream Vera Sans;font-size:12.0px;font-style:normal;font-weight:400;text-anchor:middle;" transform="rotate(-0.000000, 200.659091, 175.118125)" x="200.659090909" y="175.118125">3</text>
     </g>
    </g>
    <g id="xtick_5">
     <g id="line2d_12">
      <g>
       <use style="stroke:#000000;stroke-width:0.5;" x="238.704545455" xlink:href="#me8fc25e2d4" y="162.0"/>
      </g>
     </g>
     <g id="line2d_13">
      <g>
       <use style="stroke:#000000;stroke-width:0.5;" x="238.704545455" xlink:href="#mcc2dc9d7e3" y="18.0"/>
      </g>
     </g>
     <g id="text_5">
      <text style="font-family:Bitstream Vera Sans;font-size:12.0px;font-style:normal;font-weight:400;text-anchor:middle;" transform="rotate(-0.000000, 238.704545, 175.118125)" x="238.704545455" y="175.118125">4</text>
     </g>
    </g>
    <g id="xtick_6">
     <g id="line2d_14">
      <g>
       <use style="stroke:#000000;stroke-width:0.5;" x="276.75" xlink:href="#me8fc25e2d4" y="162.0"/>
      </g>
     </g>
     <g id="line2d_15">
      <g>
       <use style="stroke:#000000;stroke-width:0.5;" x="276.75" xlink:href="#mcc2dc9d7e3" y="18.0"/>
      </g>
     </g>
     <g id="text_6">
      <text style="font-family:Bitstream Vera Sans;font-size:12.0px;font-style:normal;font-weight:400;text-anchor:middle;" transform="rotate(-0.000000, 276.750000, 175.118125)" x="276.75" y="175.118125">5</text>
     </g>
    </g>
    <g id="xtick_7">
     <g id="line2d_16">
      <g>
       <use style="stroke:#000000;stroke-width:0.5;" x="314.795454545" xlink:href="#me8fc25e2d4" y="162.0"/>
      </g>
     </g>
     <g id="line2d_17">
      <g>
       <use style="stroke:#000000;stroke-width:0.5;" x="314.795454545" xlink:href="#mcc2dc9d7e3" y="18.0"/>
      </g>
     </g>
     <g id="text_7">
      <text style="font-family:Bitstream Vera Sans;font-size:12.0px;font-style:normal;font-weight:400;text-anchor:middle;" transform="rotate(-0.000000, 314.795455, 175.118125)" x="314.795454545" y="175.118125">6</text>
     </g>
    </g>
    <g id="xtick_8">
     <g id="line2d_18">
      <g>
       <use style="stroke:#000000;stroke-width:0.5;" x="352.840909091" xlink:href="#me8fc25e2d4" y="162.0"/>
      </g>
     </g>
     <g id="line2d_19">
      <g>
       <use style="stroke:#000000;stroke-width:0.5;" x="352.840909091" xlink:href="#mcc2dc9d7e3" y="18.0"/>
      </g>
     </g>
     <g id="text_8">
      <text style="font-family:Bitstream Vera Sans;font-size:12.0px;font-style:normal;font-weight:400;text-anchor:middle;" transform="rotate(-0.000000, 352.840909, 175.118125)" x="352.840909091" y="175.118125">7</text>
     </g>
    </g>
    <g id="xtick_9">
     <g id="line2d_20">
      <g>
       <use style="stroke:#000000;stroke-width:0.5;" x="390.886363636" xlink:href="#me8fc25e2d4" y="162.0"/>
      </g>
     </g>
     <g id="line2d_21">
      <g>
       <use style="stroke:#000000;stroke-width:0.5;" x="390.886363636" xlink:href="#mcc2dc9d7e3" y="18.0"/>
      </g>
     </g>
     <g id="text_9">
      <text style="font-family:Bitstream Vera Sans;font-size:12.0px;font-style:normal;font-weight:400;text-anchor:middle;" transform="rotate(-0.000000, 390.886364, 175.118125)" x="390.886363636" y="175.118125">8</text>
     </g>
    </g>
    <g id="xtick_10">
     <g id="line2d_22">
      <g>
       <use style="stroke:#000000;stroke-width:0.5;" x="428.931818182" xlink:href="#me8fc25e2d4" y="162.0"/>
      </g>
     </g>
     <g id="line2d_23">
      <g>
       <use style="stroke:#000000;stroke-width:0.5;" x="428.931818182" xlink:href="#mcc2dc9d7e3" y="18.0"/>
      </g>
     </g>
     <g id="text_10">
      <text style="font-family:Bitstream Vera Sans;font-size:12.0px;font-style:normal;font-weight:400;text-anchor:middle;" transform="rotate(-0.000000, 428.931818, 175.118125)" x="428.931818182" y="175.118125">9</text>
     </g>
    </g>
    <g id="xtick_11">
     <g id="line2d_24">
      <g>
       <use style="stroke:#000000;stroke-width:0.5;" x="466.977272727" xlink:href="#me8fc25e2d4" y="162.0"/>
      </g>
     </g>
     <g id="line2d_25">
      <g>
       <use style="stroke:#000000;stroke-width:0.5;" x="466.977272727" xlink:href="#mcc2dc9d7e3" y="18.0"/>
      </g>
     </g>
     <g id="text_11">
      <text style="font-family:Bitstream Vera Sans;font-size:12.0px;font-style:normal;font-weight:400;text-anchor:middle;" transform="rotate(-0.000000, 466.977273, 175.118125)" x="466.977272727" y="175.118125">10</text>
     </g>
    </g>
   </g>
   <g id="matplotlib.axis_2">
    <g id="ytick_1">
     <g id="line2d_26">
      <defs>
       <path d="M 0 0 
L 4 0 
" id="mc67497de4f" style="stroke:#000000;stroke-width:0.5;"/>
      </defs>
      <g>
       <use style="stroke:#000000;stroke-width:0.5;" x="67.5" xlink:href="#mc67497de4f" y="155.454545455"/>
      </g>
     </g>
     <g id="line2d_27">
      <defs>
       <path d="M 0 0 
L -4 0 
" id="m54b3a1871d" style="stroke:#000000;stroke-width:0.5;"/>
      </defs>
      <g>
       <use style="stroke:#000000;stroke-width:0.5;" x="486.0" xlink:href="#m54b3a1871d" y="155.454545455"/>
      </g>
     </g>
    </g>
    <g id="ytick_2">
     <g id="line2d_28">
      <g>
       <use style="stroke:#000000;stroke-width:0.5;" x="67.5" xlink:href="#mc67497de4f" y="90.0"/>
      </g>
     </g>
     <g id="line2d_29">
      <g>
       <use style="stroke:#000000;stroke-width:0.5;" x="486.0" xlink:href="#m54b3a1871d" y="90.0"/>
      </g>
     </g>
     <g id="text_12">
      <text style="font-family:Bitstream Vera Sans;font-size:12.0px;font-style:normal;font-weight:400;text-anchor:end;" transform="rotate(-0.000000, 63.500000, 93.311250)" x="63.5" y="93.31125">0</text>
     </g>
    </g>
    <g id="ytick_3">
     <g id="line2d_30">
      <g>
       <use style="stroke:#000000;stroke-width:0.5;" x="67.5" xlink:href="#mc67497de4f" y="24.5454545455"/>
      </g>
     </g>
     <g id="line2d_31">
      <g>
       <use style="stroke:#000000;stroke-width:0.5;" x="486.0" xlink:href="#m54b3a1871d" y="24.5454545455"/>
      </g>
     </g>
    </g>
   </g>
  </g>
 </g>
 <defs>
  <clipPath id="p038ba42a04">
   <rect height="144.0" width="418.5" x="67.5" y="18.0"/>
  </clipPath>
 </defs>
</svg>
